<?xml version="1.0" encoding="UTF-8" standalone="no"?>
<!-- Created with Inkscape (http://www.inkscape.org/) -->

<svg
   width="210mm"
   height="297mm"
   viewBox="0 0 210 297"
   version="1.1"
   id="svg5"
   inkscape:version="1.2 (dc2aedaf03, 2022-05-15)"
   sodipodi:docname="dibujo.svg"
   inkscape:export-filename="dibujo.png"
   inkscape:export-xdpi="96"
   inkscape:export-ydpi="96"
   xmlns:inkscape="http://www.inkscape.org/namespaces/inkscape"
   xmlns:sodipodi="http://sodipodi.sourceforge.net/DTD/sodipodi-0.dtd"
   xmlns="http://www.w3.org/2000/svg"
   xmlns:svg="http://www.w3.org/2000/svg">
  <sodipodi:namedview
     id="namedview7"
     pagecolor="#ffffff"
     bordercolor="#000000"
     borderopacity="0.25"
     inkscape:showpageshadow="2"
     inkscape:pageopacity="0.0"
     inkscape:pagecheckerboard="0"
     inkscape:deskcolor="#d1d1d1"
     inkscape:document-units="mm"
     showgrid="false"
     inkscape:zoom="1.0771772"
     inkscape:cx="282.21912"
     inkscape:cy="401.04822"
     inkscape:window-width="1920"
     inkscape:window-height="1009"
     inkscape:window-x="-8"
     inkscape:window-y="-8"
     inkscape:window-maximized="1"
     inkscape:current-layer="layer1" />
  <defs
     id="defs2" />
  <g
     inkscape:label="Capa 1"
     inkscape:groupmode="layer"
     id="layer1">
    <circle
       style="opacity:0.964286;fill:#0000ff;stroke:#000000;stroke-width:1.8;stroke-linejoin:round"
       id="path184"
       cx="35.880688"
       cy="40.354336"
       r="11.115789"
       inkscape:export-filename="path1189.png"
       inkscape:export-xdpi="96"
       inkscape:export-ydpi="96" />
    <g
       id="g841"
       transform="translate(38.563371,-2.7018922)"
       style="fill:#0000ff">
      <circle
         style="opacity:0.964286;fill:#0000ff;stroke:#000000;stroke-width:1.8;stroke-linejoin:round"
         id="path252"
         cx="32.422707"
         cy="38.072117"
         r="1.1667261" />
      <circle
         style="opacity:0.964286;fill:#0000ff;stroke:#000000;stroke-width:1.8;stroke-linejoin:round"
         id="path254"
         cx="38.716888"
         cy="38.164227"
         r="1.3202428" />
    </g>
    <ellipse
       style="opacity:0.964286;fill:#0000ff;stroke:#000000;stroke-width:1.8;stroke-linejoin:round"
       id="path256"
       cx="17.147993"
       cy="141.75737"
       rx="9.7263155"
       ry="5.3842101" />
    <rect
       style="opacity:0.964286;fill:#0000ff;stroke:#000000;stroke-width:1.8;stroke-linejoin:round"
       id="rect266"
       width="8.6842098"
       height="15.28421"
       x="23.65173"
       y="96.505829"
       ry="0.33428231" />
    <rect
       style="opacity:0.964286;fill:#0000ff;stroke:#000000;stroke-width:1.8;stroke-linejoin:round"
       id="rect268"
       width="7.2947369"
       height="15.631578"
       x="24.118294"
       y="117.22874"
       ry="0.33428231" />
    <g
       id="g837"
       transform="translate(-4.1756516,6.6319173)"
       style="fill:#0000ff">
      <path
         style="opacity:0.964286;fill:#0000ff;stroke:#000000;stroke-width:1.8;stroke-linejoin:round"
         d="m 89.40807,29.290967 4.544089,-0.184218"
         id="path596" />
      <path
         style="opacity:0.964286;fill:#0000ff;stroke:#000000;stroke-width:1.8;stroke-linejoin:round"
         d="m 96.838271,29.290967 5.403789,-0.245626"
         id="path598" />
    </g>
    <path
       style="opacity:0.964286;fill:#0000ff;stroke:#000000;stroke-width:1.26086;stroke-linejoin:round"
       d="m 40.360585,24.585499 c -0.06602,0 -0.304464,-0.187836 -0.392954,-0.226008 -0.06904,-0.02978 -0.183866,-0.03123 -0.261968,-0.0565 -0.332217,-0.107478 -0.151163,-0.113004 -0.589427,-0.113004 -0.08732,0 -0.200218,-0.02663 -0.26197,0 -0.01543,0.0067 0,0.01883 0,0.02825 -0.152812,0.02825 -0.305628,0.0565 -0.458443,0.08475 -0.203664,0.05271 -1.302331,0.478725 -1.440826,0.565019 -0.533488,0.332404 -0.589427,0.711362 -0.589427,1.101788 0,0.131838 0.05024,0.265469 0,0.395513 -0.01933,0.05002 -0.08732,0.09417 -0.130985,0.141255 -0.269895,-0.250097 -0.196475,-0.49742 -0.196475,-0.762776 0,-0.197757 0.08991,-0.399354 0,-0.59327 -0.08088,-0.174435 -0.405908,-0.361055 -0.458445,-0.56502 -0.03555,-0.137989 -0.01113,-0.267597 -0.196477,-0.395513 -0.04171,-0.02879 -0.147305,-0.02999 -0.196476,-0.0565 -0.04312,-0.02325 -0.0272,-0.05998 -0.06549,-0.08475 -0.02422,-0.01567 -0.100116,0.01332 -0.130985,0 -0.03451,-0.01489 -0.02363,-0.04567 -0.0655,-0.0565 -0.07719,-0.01998 -0.178396,-0.01383 -0.261969,-0.02825 -0.02867,-0.0049 -0.04366,-0.01884 -0.0655,-0.02825 -0.04366,-0.0094 -0.08528,-0.02086 -0.130985,-0.02825 -0.129279,-0.02091 -0.271741,-0.02798 -0.392952,-0.0565 -0.122717,-0.02887 -0.202433,-0.08604 -0.327461,-0.113004 -0.05857,-0.01263 -0.134344,0.0089 -0.196476,0 -0.0655,-0.01883 -0.130984,-0.03767 -0.196476,-0.0565 0,-0.0094 0.01543,-0.02159 0,-0.02825 -0.03875,-0.01671 -0.512505,-0.002 -0.523936,0 -0.05733,0.0099 -0.08732,0.03767 -0.130984,0.0565 -0.08733,0.03767 -0.200699,0.06675 -0.261969,0.113004 -0.0325,0.02453 0.01284,0.05705 0,0.08475 -0.04621,0.09968 -0.196475,0.06005 -0.196475,0.197757"
       id="path602" />
    <rect
       style="opacity:0.964286;fill:#0000ff;stroke:#000000;stroke-width:1.8;stroke-linejoin:round"
       id="rect610"
       width="19.452631"
       height="38.905262"
       x="26.032696"
       y="54.06728"
       ry="0.33428231" />
    <rect
       style="opacity:0.964286;fill:#0000ff;stroke:#000000;stroke-width:1.8;stroke-linejoin:round"
       id="rect610-6"
       width="19.452631"
       height="38.905262"
       x="108.66568"
       y="53.007198"
       ry="0.33428231"
       inkscape:export-filename="path1189.png"
       inkscape:export-xdpi="96"
       inkscape:export-ydpi="96" />
    <g
       id="g846"
       style="fill:#0000ff">
      <ellipse
         style="opacity:0.964286;fill:#0000ff;stroke:#000000;stroke-width:1.8;stroke-linejoin:round"
         id="ellipse612"
         cx="35.772633"
         cy="62.73745"
         rx="0.52105266"
         ry="0.75986844" />
      <ellipse
         style="opacity:0.964286;fill:#0000ff;stroke:#000000;stroke-width:1.8;stroke-linejoin:round"
         id="ellipse614"
         cx="35.92461"
         cy="67.426926"
         rx="0.36907893"
         ry="0.49934208" />
      <ellipse
         style="opacity:0.964286;fill:#0000ff;stroke:#000000;stroke-width:1.8;stroke-linejoin:round"
         id="ellipse616"
         cx="35.92461"
         cy="71.421661"
         rx="0.54276311"
         ry="0.23881578" />
    </g>
    <ellipse
       style="opacity:0.964286;fill:#0000ff;stroke:#000000;stroke-width:1.8;stroke-linejoin:round"
       id="ellipse644"
       cx="-53.558575"
       cy="141.26611"
       rx="9.7263155"
       ry="5.3842101"
       transform="scale(-1,1)" />
    <rect
       style="opacity:0.964286;fill:#0000ff;stroke:#000000;stroke-width:1.8;stroke-linejoin:round"
       id="rect646"
       width="8.6842098"
       height="15.28421"
       x="-49.511101"
       y="97.488327"
       ry="0.33428231"
       transform="scale(-1,1)" />
    <rect
       style="opacity:0.964286;fill:#0000ff;stroke:#000000;stroke-width:1.8;stroke-linejoin:round"
       id="rect648"
       width="7.2947369"
       height="15.631578"
       x="-49.781414"
       y="117.22874"
       ry="0.33428231"
       transform="scale(-1,1)" />
    <rect
       style="opacity:0.964286;fill:#0000ff;stroke:#000000;stroke-width:2.08485;stroke-linejoin:round"
       id="rect258"
       width="4.5783057"
       height="18.810184"
       x="50.640789"
       y="51.904552"
       ry="0.47635698" />
    <rect
       style="opacity:0.964286;fill:#0000ff;stroke:#000000;stroke-width:2.09452;stroke-linejoin:round"
       id="rect260"
       width="3.1791561"
       height="21.070747"
       x="57.091511"
       y="73.632278"
       ry="0.49456021" />
    <g
       id="g833"
       transform="translate(7.1231704,7.8600501)"
       style="fill:#0000ff">
      <g
         id="g629"
         transform="translate(-86.706178,33.650839)"
         style="fill:#0000ff">
        <ellipse
           style="opacity:0.964286;fill:#0000ff;stroke:#000000;stroke-width:1.8;stroke-linejoin:round"
           id="path242"
           cx="139.81578"
           cy="64.263153"
           rx="5.0368423"
           ry="4.8631577" />
        <ellipse
           style="opacity:0.964286;fill:#0000ff;stroke:#000000;stroke-width:1.8;stroke-linejoin:round"
           id="path244"
           cx="143.13889"
           cy="59.380222"
           rx="1.2895395"
           ry="1.2281328" />
        <ellipse
           style="opacity:0.964286;fill:#0000ff;stroke:#000000;stroke-width:1.8;stroke-linejoin:round"
           id="path246"
           cx="145.59515"
           cy="66.134949"
           rx="0.73687965"
           ry="0.67547303" />
        <circle
           style="opacity:0.964286;fill:#0000ff;stroke:#000000;stroke-width:1.8;stroke-linejoin:round"
           id="path248"
           cx="143.78365"
           cy="68.867546"
           r="0.76758301" />
        <ellipse
           style="opacity:0.964286;fill:#0000ff;stroke:#000000;stroke-width:1.8;stroke-linejoin:round"
           id="path250"
           cx="140.37558"
           cy="70.157089"
           rx="0.85969293"
           ry="0.64476973" />
      </g>
      <g
         id="g662"
         transform="translate(-86.706178,33.650839)"
         style="fill:#0000ff">
        <ellipse
           style="opacity:0.964286;fill:#0000ff;stroke:#000000;stroke-width:1.8;stroke-linejoin:round"
           id="ellipse652"
           cx="139.81578"
           cy="64.263153"
           rx="5.0368423"
           ry="4.8631577" />
        <ellipse
           style="opacity:0.964286;fill:#0000ff;stroke:#000000;stroke-width:1.8;stroke-linejoin:round"
           id="ellipse654"
           cx="143.13889"
           cy="59.380222"
           rx="1.2895395"
           ry="1.2281328" />
        <ellipse
           style="opacity:0.964286;fill:#0000ff;stroke:#000000;stroke-width:1.8;stroke-linejoin:round"
           id="ellipse656"
           cx="145.59515"
           cy="66.134949"
           rx="0.73687965"
           ry="0.67547303" />
        <circle
           style="opacity:0.964286;fill:#0000ff;stroke:#000000;stroke-width:1.8;stroke-linejoin:round"
           id="circle658"
           cx="143.78365"
           cy="68.867546"
           r="0.76758301" />
        <ellipse
           style="opacity:0.964286;fill:#0000ff;stroke:#000000;stroke-width:1.8;stroke-linejoin:round"
           id="ellipse660"
           cx="140.37558"
           cy="70.157089"
           rx="0.85969293"
           ry="0.64476973" />
      </g>
    </g>
    <rect
       style="opacity:0.964286;fill:#0000ff;stroke:#000000;stroke-width:2.08485;stroke-linejoin:round"
       id="rect695"
       width="4.5783057"
       height="18.810184"
       x="-18.218166"
       y="52.887062"
       ry="0.47635698"
       transform="scale(-1,1)" />
    <g
       id="g709"
       transform="matrix(-1,0,0,1,154.09138,41.019637)"
       style="fill:#0000ff">
      <ellipse
         style="opacity:0.964286;fill:#0000ff;stroke:#000000;stroke-width:1.8;stroke-linejoin:round"
         id="ellipse699"
         cx="139.81578"
         cy="64.263153"
         rx="5.0368423"
         ry="4.8631577" />
      <ellipse
         style="opacity:0.964286;fill:#0000ff;stroke:#000000;stroke-width:1.8;stroke-linejoin:round"
         id="ellipse701"
         cx="143.13889"
         cy="59.380222"
         rx="1.2895395"
         ry="1.2281328" />
      <ellipse
         style="opacity:0.964286;fill:#0000ff;stroke:#000000;stroke-width:1.8;stroke-linejoin:round"
         id="ellipse703"
         cx="145.59515"
         cy="66.134949"
         rx="0.73687965"
         ry="0.67547303" />
      <circle
         style="opacity:0.964286;fill:#0000ff;stroke:#000000;stroke-width:1.8;stroke-linejoin:round"
         id="circle705"
         cx="143.78365"
         cy="68.867546"
         r="0.76758301" />
      <ellipse
         style="opacity:0.964286;fill:#0000ff;stroke:#000000;stroke-width:1.8;stroke-linejoin:round"
         id="ellipse707"
         cx="140.37558"
         cy="70.157089"
         rx="0.85969293"
         ry="0.64476973" />
    </g>
    <rect
       style="opacity:0.964286;fill:#0000ff;stroke:#000000;stroke-width:2.09452;stroke-linejoin:round"
       id="rect711"
       width="3.1791561"
       height="21.070747"
       x="-13.978086"
       y="75.597282"
       ry="0.49456021"
       transform="scale(-1,1)" />
    <rect
       style="opacity:0.964286;fill:#0000ff;stroke:#000000;stroke-width:1.52335;stroke-linejoin:round"
       id="rect894"
       width="13.834244"
       height="39.181911"
       x="85.827248"
       y="53.192078"
       ry="0.33665934" />
    <circle
       style="opacity:0.964286;fill:#0000ff;stroke:#000000;stroke-width:1.8;stroke-linejoin:round"
       id="circle898"
       cx="77.280266"
       cy="27.847912"
       r="1.3202428" />
    <path
       style="opacity:0.964286;fill:#0000ff;stroke:#000000;stroke-width:1.8;stroke-linejoin:round"
       d="m 92.171369,27.080328 5.40379,-0.245626"
       id="path906" />
    <path
       style="opacity:0.964286;fill:#0000ff;stroke:#000000;stroke-width:1.51772;stroke-linejoin:round"
       d="m 50.562596,23.241633 c -0.06425,0 -0.296292,-0.279667 -0.382407,-0.336501 -0.06719,-0.04434 -0.178931,-0.0465 -0.254937,-0.08412 -0.3233,-0.160023 -0.147106,-0.16825 -0.573607,-0.16825 -0.08498,0 -0.194844,-0.03965 -0.254938,0 -0.01502,0.01 0,0.02803 0,0.04206 -0.148711,0.04206 -0.297425,0.08412 -0.446139,0.126183 -0.198197,0.07848 -1.267376,0.71277 -1.402154,0.841253 -0.519169,0.494913 -0.573607,1.059141 -0.573607,1.640443 0,0.196292 0.04889,0.395255 0,0.588876 -0.01881,0.07447 -0.08498,0.140209 -0.127469,0.210313 -0.262651,-0.372367 -0.191202,-0.740604 -0.191202,-1.135691 0,-0.294438 0.0875,-0.594595 0,-0.883315 -0.07871,-0.259714 -0.395013,-0.537571 -0.44614,-0.841253 -0.0346,-0.205451 -0.01083,-0.398423 -0.191203,-0.588876 -0.04059,-0.04287 -0.143352,-0.04465 -0.191203,-0.08412 -0.04196,-0.03462 -0.02647,-0.0893 -0.06373,-0.126183 -0.02357,-0.02333 -0.09743,0.01983 -0.12747,0 -0.03358,-0.02217 -0.023,-0.068 -0.06374,-0.08412 -0.07512,-0.02975 -0.173607,-0.02059 -0.254937,-0.04206 -0.0279,-0.0073 -0.04249,-0.02805 -0.06374,-0.04206 -0.04249,-0.014 -0.08299,-0.03106 -0.12747,-0.04206 -0.125809,-0.03113 -0.264447,-0.04166 -0.382405,-0.08412 -0.119423,-0.04298 -0.196999,-0.128104 -0.318672,-0.16825 -0.057,-0.01881 -0.130738,0.01325 -0.191202,0 -0.06374,-0.02804 -0.127469,-0.05609 -0.191203,-0.08412 0,-0.01399 0.01502,-0.03214 0,-0.04206 -0.03771,-0.02488 -0.498749,-0.003 -0.509873,0 -0.05579,0.01474 -0.08498,0.05609 -0.127469,0.08412 -0.08499,0.05609 -0.195312,0.09938 -0.254938,0.168251 -0.03163,0.03652 0.0125,0.08494 0,0.126184 -0.04497,0.148412 -0.191201,0.08941 -0.191201,0.294438"
       id="path912" />
    <path
       style="opacity:0.964286;fill:#0000ff;stroke:#000000;stroke-width:1.21383;stroke-linejoin:round"
       d="m 62.249667,24.501877 c -0.06647,0 -0.30654,-0.172904 -0.395634,-0.208041 -0.06951,-0.02741 -0.185119,-0.02875 -0.263754,-0.05201 -0.334482,-0.09893 -0.152194,-0.10402 -0.593446,-0.10402 -0.08792,0 -0.201583,-0.02451 -0.263755,0 -0.01554,0.0062 0,0.01733 0,0.026 -0.153855,0.026 -0.307712,0.05201 -0.46157,0.07801 -0.205052,0.04852 -1.31121,0.440669 -1.45065,0.520103 -0.537125,0.305979 -0.593446,0.654812 -0.593446,1.0142 0,0.121357 0.05058,0.244366 0,0.364072 -0.01946,0.04604 -0.08792,0.08668 -0.131877,0.130025 -0.271736,-0.230215 -0.197815,-0.457877 -0.197815,-0.702138 0,-0.182036 0.09053,-0.367607 0,-0.546108 -0.08143,-0.160567 -0.408676,-0.332352 -0.461571,-0.520103 -0.0358,-0.127019 -0.0112,-0.246324 -0.197816,-0.364071 -0.04199,-0.0265 -0.14831,-0.0276 -0.197816,-0.05201 -0.04341,-0.0214 -0.02739,-0.05521 -0.06593,-0.07801 -0.02439,-0.01442 -0.1008,0.01226 -0.131879,0 -0.03474,-0.01371 -0.02379,-0.04204 -0.06594,-0.05201 -0.07772,-0.01839 -0.179612,-0.01273 -0.263755,-0.026 -0.02886,-0.0045 -0.04396,-0.01734 -0.06594,-0.026 -0.04396,-0.0087 -0.08586,-0.0192 -0.131879,-0.026 -0.13016,-0.01925 -0.273593,-0.02576 -0.395631,-0.05201 -0.123554,-0.02657 -0.203813,-0.0792 -0.329694,-0.10402 -0.05897,-0.01163 -0.13526,0.0082 -0.197815,0 -0.06595,-0.01734 -0.131878,-0.03468 -0.197816,-0.05201 0,-0.0086 0.01554,-0.01987 0,-0.026 -0.03901,-0.01538 -0.515999,-0.0019 -0.527508,0 -0.05772,0.0091 -0.08792,0.03468 -0.131878,0.05201 -0.08793,0.03468 -0.202067,0.06144 -0.263755,0.10402 -0.03272,0.02258 0.01293,0.05251 0,0.07801 -0.04653,0.09176 -0.197814,0.05528 -0.197814,0.182036"
       id="path914" />
    <rect
       style="opacity:0.964286;fill:#0000ff;stroke:#000000;stroke-width:1.8;stroke-linejoin:round"
       id="rect1075"
       width="22.106388"
       height="22.597645"
       x="137.30525"
       y="75.407356"
       ry="0.33428231" />
    <path
       style="opacity:0.964286;fill:#0000ff;stroke:#000000;stroke-width:1.8;stroke-linejoin:round"
       d="m 126.49768,105.61942 v 14.24634 l 4.91254,-4.91253 h -9.33381 l 3.93002,3.93003"
       id="path1183" />
    <path
       style="opacity:0.964286;fill:#0000ff;stroke:#000000;stroke-width:1.8;stroke-linejoin:round"
       d="m 139.51589,114.21636 h 14.24635 l -4.91254,-4.91254 v 9.33381 l 3.93003,-3.93002"
       id="path1185" />
    <path
       style="opacity:0.964286;fill:#0000ff;stroke:#000000;stroke-width:1.8;stroke-linejoin:round"
       d="m 126.74332,144.1828 v -14.24635 l -4.91254,4.91254 h 9.33381 l -3.93002,-3.93003"
       id="path1187" />
    <path
       style="opacity:0.964286;fill:#0000ff;stroke:#000000;stroke-width:1.8;stroke-linejoin:round"
       d="m 154.99037,136.32274 h -14.24635 l 4.91254,4.91254 v -9.33381 l -3.93003,3.93002"
       id="path1189"
       inkscape:export-filename="path11.png"
       inkscape:export-xdpi="96"
       inkscape:export-ydpi="96" />
  </g>
</svg>
